<svg width="50" height="50" viewBox="0 0 50 50" fill="none" xmlns="http://www.w3.org/2000/svg">
<g clip-path="url(#clip0_14_107)">
<rect y="1" width="50" height="50" rx="6" fill="#E95420"/>
<path d="M38.8462 11H11.1538C10.8478 11 10.5543 11.158 10.338 11.4393C10.1216 11.7206 10 12.1022 10 12.5V38C10 38.7956 10.2431 39.5587 10.6759 40.1213C11.1087 40.6839 11.6957 41 12.3077 41H37.6923C38.3043 41 38.8913 40.6839 39.3241 40.1213C39.7569 39.5587 40 38.7956 40 38V12.5C40 12.1022 39.8784 11.7206 39.662 11.4393C39.4457 11.158 39.1522 11 38.8462 11ZM25 26.9656L14.1207 14H35.8793L25 26.9656ZM20.7755 26L12.3077 36.0894V15.9106L20.7755 26ZM22.4832 28.0344L24.2139 30.1062C24.4268 30.3603 24.7053 30.5012 24.9942 30.5012C25.2832 30.5012 25.5616 30.3603 25.7745 30.1062L27.5053 28.0344L35.8707 38H14.1207L22.4832 28.0344ZM29.2245 26L37.6923 15.9088V36.0913L29.2245 26Z" fill="#141414"/>
</g>
<defs>
<clipPath id="clip0_14_107">
<rect width="50" height="49.9999" fill="white"/>
</clipPath>
</defs>
</svg>
