<svg width="50" height="50" viewBox="0 0 50 50" fill="none" xmlns="http://www.w3.org/2000/svg">
<g clip-path="url(#clip0_48_229)">
<path d="M0 6C0 2.68629 2.68629 0 6 0H44C47.3137 0 50 2.68629 50 6V44C50 47.3137 47.3137 50 44 50H6C2.68629 50 0 47.3137 0 44V6Z" fill="#E95420"/>
<path d="M37.9319 17.1778C38.2716 16.0822 38.3805 14.9282 38.2519 13.7884C38.1233 12.6487 37.7599 11.5479 37.1847 10.5556C37.0872 10.3866 36.9469 10.2463 36.7779 10.1488C36.609 10.0513 36.4173 9.99997 36.2222 10C34.928 9.99731 33.6512 10.2973 32.4936 10.8761C31.336 11.4549 30.3299 12.2964 29.5556 13.3333H26.2222C25.4479 12.2964 24.4417 11.4549 23.2842 10.8761C22.1266 10.2973 20.8497 9.99731 19.5556 10C19.3605 9.99997 19.1688 10.0513 18.9999 10.1488C18.8309 10.2463 18.6906 10.3866 18.5931 10.5556C18.0178 11.5479 17.6545 12.6487 17.5259 13.7884C17.3973 14.9282 17.5062 16.0822 17.8458 17.1778C17.1593 18.376 16.7916 19.7303 16.7778 21.1111V22.2222C16.7801 24.1022 17.4626 25.9179 18.6992 27.334C19.9358 28.75 21.643 29.6709 23.5056 29.9264C22.7453 30.8993 22.3326 32.0986 22.3333 33.3333V34.4444H19C18.1159 34.4444 17.2681 34.0933 16.643 33.4681C16.0179 32.843 15.6667 31.9952 15.6667 31.1111C15.6667 30.3816 15.523 29.6591 15.2438 28.9851C14.9646 28.3111 14.5554 27.6986 14.0395 27.1827C13.5236 26.6669 12.9112 26.2576 12.2371 25.9785C11.5631 25.6993 10.8407 25.5556 10.1111 25.5556C9.81643 25.5556 9.53381 25.6726 9.32544 25.881C9.11706 26.0894 9 26.372 9 26.6667C9 26.9614 9.11706 27.244 9.32544 27.4523C9.53381 27.6607 9.81643 27.7778 10.1111 27.7778C10.9952 27.7778 11.843 28.129 12.4681 28.7541C13.0933 29.3792 13.4444 30.2271 13.4444 31.1111C13.4444 32.5845 14.0298 33.9976 15.0716 35.0395C16.1135 36.0814 17.5266 36.6667 19 36.6667H22.3333V38.8889C22.3333 39.1836 22.4504 39.4662 22.6588 39.6746C22.8671 39.8829 23.1498 40 23.4444 40C23.7391 40 24.0217 39.8829 24.2301 39.6746C24.4385 39.4662 24.5556 39.1836 24.5556 38.8889V33.3333C24.5556 32.4493 24.9067 31.6014 25.5319 30.9763C26.157 30.3512 27.0048 30 27.8889 30C28.7729 30 29.6208 30.3512 30.2459 30.9763C30.871 31.6014 31.2222 32.4493 31.2222 33.3333V38.8889C31.2222 39.1836 31.3393 39.4662 31.5477 39.6746C31.756 39.8829 32.0386 40 32.3333 40C32.628 40 32.9106 39.8829 33.119 39.6746C33.3274 39.4662 33.4444 39.1836 33.4444 38.8889V33.3333C33.4452 32.0986 33.0325 30.8993 32.2722 29.9264C34.1348 29.6709 35.842 28.75 37.0786 27.334C38.3152 25.9179 38.9977 24.1022 39 22.2222V21.1111C38.9862 19.7303 38.6184 18.376 37.9319 17.1778ZM36.7778 22.2222C36.7778 23.6957 36.1925 25.1087 35.1506 26.1506C34.1087 27.1925 32.6956 27.7778 31.2222 27.7778H24.5556C23.0821 27.7778 21.6691 27.1925 20.6272 26.1506C19.5853 25.1087 19 23.6957 19 22.2222V21.1111C19.0136 20 19.3463 18.9163 19.9583 17.9889C20.0724 17.8385 20.1463 17.6615 20.1731 17.4747C20.1998 17.2878 20.1785 17.0972 20.1111 16.9208C19.8217 16.1745 19.6824 15.3783 19.7012 14.578C19.7201 13.7777 19.8966 12.9889 20.2208 12.257C21.1302 12.3548 22.0058 12.656 22.7829 13.1383C23.5599 13.6206 24.2185 14.2716 24.7097 15.0431C24.8098 15.1996 24.9476 15.3285 25.1104 15.4181C25.2732 15.5076 25.4559 15.5549 25.6417 15.5556H30.1347C30.3212 15.5556 30.5047 15.5086 30.6683 15.4191C30.8319 15.3295 30.9704 15.2002 31.0708 15.0431C31.562 14.2715 32.2205 13.6205 32.9976 13.1382C33.7747 12.6559 34.6504 12.3547 35.5597 12.257C35.8835 12.9891 36.0596 13.7779 36.0779 14.5782C36.0963 15.3786 35.9565 16.1746 35.6667 16.9208C35.5995 17.0955 35.577 17.2842 35.6013 17.4697C35.6256 17.6553 35.6958 17.8318 35.8056 17.9833C36.4237 18.9107 36.7613 19.9967 36.7778 21.1111V22.2222Z" fill="#141414"/>
</g>
<defs>
<clipPath id="clip0_48_229">
<rect width="50" height="50" fill="white"/>
</clipPath>
</defs>
</svg>
