<svg width="100" height="100" viewBox="0 0 100 100" fill="none" xmlns="http://www.w3.org/2000/svg">
<g clip-path="url(#clip0_17_108)">
<path d="M68.5 105.5C122.495 113.284 110 83.6125 110 56C110 6 104.996 -11.5 75.4957 -11.5C17.9957 -11.5 -31.8917 -1.6125 -31.8917 26C-32.8917 92 -22 111.5 68.5 105.5ZM26.7125 28.1625C33.1667 22.125 42.1458 17.4958 50.4333 14.55C64.3708 9.59583 79.0998 12.5167 81.3581 21.4042L81.054 21.125C83.2415 29.875 75.6792 40.3167 65.9959 44.0625C57.3709 47.4333 50.1792 46.875 47.2458 45.9375C43.8667 44.8125 41.9292 42.625 41.4292 41.375C41.2417 40.875 40.9292 40.0625 41.4292 39.8125C41.7417 39.6208 41.8667 39.6833 42.7375 40.6208C43.5542 41.5 46.7416 43.8708 52.8666 43.1833C68.9291 41.375 78.5499 28.9333 75.4957 22.25C73.3707 17.5625 61.0542 15.4334 45.6167 23.125C26.8042 32.5 25.7417 40.2458 25.6167 43.1833C25.1792 51.2458 35.6167 55.4958 41.2417 61.5583C41.425 61.6833 41.5542 61.8083 41.6792 61.9958C43.3625 61.3083 45.7416 60.9958 49.4916 60.9292C58.6125 60.8083 63.7417 66.8042 63.5542 72.1792C63.3667 76.4333 59.4874 78.1833 58.7999 78.3083C58.3041 78.3708 57.9874 78.3708 57.9249 77.9958C57.8666 77.7417 58.0541 77.6208 58.6791 77.2417C59.3083 76.8667 61.1125 75.5542 61.4875 73.3083C61.8667 71.0583 60.1166 65.5583 51.3625 64.5583C48.2375 64.1792 45.8042 64.4292 43.7375 64.9917C45.2458 68.3042 45.5542 75.0542 42.0542 80.3083C38.4292 85.6792 31.6792 88.9958 25.1167 87.1792C22.9917 86.6208 19.7417 82.2417 22.5542 76.1167C25.1792 70.3 36.3833 64.6792 37.9125 63.9292V63.9042C32.7208 59.4333 20.0958 53.4083 18.3167 44.1958C17.8125 41.5833 19.0333 35.3334 26.7125 28.1625Z" fill="#C76495"/>
<path d="M28.3458 82.3375C30.0875 83.3458 34.1458 82.1458 37.0542 78.9833C38.0083 77.9417 38.7833 76.8167 39.3667 75.6083C39.475 75.375 39.5917 75.1292 39.6917 74.875L39.9625 74.125C40.7125 71.8583 40.7917 69.3458 40.0625 66.6583L39.6125 66.9125V66.925C39.6125 66.925 34.4083 69.3875 30.7792 73.2125C27.4042 76.775 26.4708 81.2458 28.3458 82.3375Z" fill="#C76495"/>
</g>
<defs>
<clipPath id="clip0_17_108">
<rect width="100" height="100" rx="13" fill="white"/>
</clipPath>
</defs>
</svg>
