<svg width="50" height="50" viewBox="0 0 50 50" fill="none" xmlns="http://www.w3.org/2000/svg">
<g clip-path="url(#clip0_14_103)">
<rect y="-1" width="50" height="50" rx="6" fill="#E95420"/>
<path d="M39.5828 9.32823C39.4168 9.16768 39.2148 9.0609 38.9986 9.0194C38.7825 8.9779 38.5603 9.00326 38.356 9.09273L11.2142 20.9893C10.8296 21.1569 10.5039 21.4598 10.2863 21.8526C10.0687 22.2453 9.97084 22.7067 10.0076 23.1671C10.0443 23.6275 10.2135 24.0621 10.4898 24.4055C10.7662 24.7488 11.1346 24.9823 11.5397 25.0709L18.5722 26.6174V35.4C18.5708 35.8783 18.6978 36.3462 18.9366 36.7428C19.1754 37.1394 19.515 37.4466 19.9115 37.6245C20.3074 37.8055 20.7427 37.849 21.161 37.7492C21.5792 37.6494 21.961 37.411 22.2566 37.065L25.6476 33.1259L31.0275 38.4C31.4156 38.7856 31.9162 38.999 32.4351 39C32.6624 38.9998 32.8884 38.9598 33.1047 38.8815C33.4582 38.7559 33.7762 38.5287 34.0269 38.2226C34.2776 37.9165 34.4524 37.5422 34.5337 37.137L39.9698 10.6497C40.0185 10.4109 40.0081 10.1617 39.94 9.92886C39.8718 9.69606 39.7483 9.48843 39.5828 9.32823ZM31.3945 14.7283L19.3959 24.3524L12.7531 22.8929L31.3945 14.7283ZM20.7151 35.4V28.2779L24.0351 31.5389L20.7151 35.4ZM32.4378 36.6L21.3646 25.7249L37.302 12.9313L32.4378 36.6Z" fill="#141414"/>
</g>
<defs>
<clipPath id="clip0_14_103">
<rect width="50" height="49.9999" fill="white"/>
</clipPath>
</defs>
</svg>
