<svg width="100" height="100" viewBox="0 0 100 100" fill="none" xmlns="http://www.w3.org/2000/svg">
<path d="M1 49.8281V85.6562C1 92.836 6.8203 98.6562 14 98.6562H85.6562C92.836 98.6562 98.6562 92.836 98.6562 85.6562V14C98.6562 6.8203 92.836 1 85.6562 1H14C6.8203 1 1 6.8203 1 14V49.8281ZM79.6953 45.9299C79.6953 45.9258 79.6991 45.9228 79.7031 45.9237C82.039 46.4674 84.162 47.6899 85.8047 49.4375C85.9076 49.5447 86.009 49.6532 86.1089 49.7631C87.6379 51.4459 87.2082 53.2994 85.3191 54.5648C84.0243 55.4321 82.5229 56.4113 81.3594 57.1328C81.2656 57.1953 80.8906 56.7891 80.4766 56.1719C80.0073 55.3622 79.3407 54.6847 78.5387 54.2024C77.7368 53.7202 76.8257 53.4489 75.8906 53.4141C72.9297 53.2109 71.0234 54.7656 71.0391 57.3203C71.0146 57.9564 71.1602 58.5874 71.4609 59.1484C72.1094 60.5 73.3203 61.3047 77.1172 62.9453C84.1094 65.9531 87.1016 67.9375 88.9609 70.7578C91.0391 73.8828 91.5 78.9297 90.0938 82.6641C88.5312 86.7266 84.7031 89.4844 79.2891 90.3984C76.8163 90.6817 74.3178 90.6554 71.8516 90.3203C68.0876 89.7097 64.6155 87.9176 61.9375 85.2031C61.361 84.5665 60.4339 83.2736 59.8723 82.3792C59.4987 81.784 59.6777 81.1996 60.2969 80.8672V80.8672L63.8906 78.8047L65.7897 77.7044C66.2997 77.4089 66.9513 77.5585 67.2812 78.0469V78.0469C68.2701 79.4614 69.5286 80.6668 70.9844 81.5938C74.1094 83.2344 78.375 83.0078 80.4844 81.1094C81.1926 80.4137 81.6344 79.4917 81.7329 78.5039C81.8314 77.516 81.5804 76.5249 81.0234 75.7031C80.2422 74.6172 78.6797 73.7031 74.3125 71.7969C69.2734 69.625 67.1016 68.2812 65.1172 66.1406C63.8784 64.728 62.9638 63.0614 62.4375 61.2578C62.045 59.1972 61.9869 57.0869 62.2656 55.0078C63.3047 50.1406 66.9531 46.7422 72.2812 45.7344C74.7462 45.4294 77.2431 45.4974 79.6878 45.9362C79.6917 45.9369 79.6953 45.9339 79.6953 45.9299V45.9299ZM56.7734 50.0156V50.0156C56.7734 52.2248 54.9826 54.0156 52.7734 54.0156H50.4336C46.9322 54.0156 44.0938 56.8541 44.0938 60.3555V85.6367C44.0938 88.1198 42.0808 90.1328 39.5977 90.1328V90.1328C37.1145 90.1328 35.1016 88.1198 35.1016 85.6367V60.3633C35.1016 56.8533 32.2561 54.0078 28.7461 54.0078H26.2969C24.1395 54.0078 22.3906 52.2589 22.3906 50.1016V50.1016C22.3884 50.0119 22.3864 49.9223 22.3847 49.8326C22.3396 47.3732 23.8008 46.0237 26.2605 46.0088C29.4252 45.9897 34.2896 45.9832 39.6875 45.9922H52.7029C54.9326 45.9922 56.7475 47.786 56.7734 50.0156V50.0156Z" fill="#007ACC"/>
</svg>
