<svg width="50" height="50" viewBox="0 0 50 50" fill="none" xmlns="http://www.w3.org/2000/svg">
<g clip-path="url(#clip0_14_101)">
<rect width="50" height="50" rx="6" fill="#E95420"/>
<path d="M33.5988 27.4288L28.983 25.1212C28.8013 25.0306 28.5989 24.9896 28.3963 25.0023C28.1937 25.0149 27.998 25.0808 27.829 25.1933L25.7101 26.6067C24.7374 26.0721 23.9369 25.2717 23.4022 24.299L24.8158 22.1803C24.9282 22.0113 24.9941 21.8156 25.0068 21.613C25.0194 21.4105 24.9784 21.2081 24.8879 21.0264L22.58 16.4111C22.4843 16.2179 22.3364 16.0554 22.1531 15.9419C21.9698 15.8285 21.7584 15.7687 21.5428 15.7692C20.0126 15.7692 18.545 16.3771 17.463 17.459C16.3809 18.5409 15.7731 20.0084 15.7731 21.5385C15.7769 24.9035 17.1155 28.1296 19.4951 30.5091C21.8748 32.8885 25.1012 34.227 28.4666 34.2308C29.2243 34.2308 29.9746 34.0815 30.6746 33.7916C31.3746 33.5017 32.0107 33.0767 32.5464 32.541C33.0822 32.0053 33.5072 31.3693 33.7972 30.6693C34.0871 29.9694 34.2364 29.2192 34.2364 28.4615C34.2365 28.2472 34.177 28.037 34.0643 27.8546C33.9517 27.6722 33.7905 27.5248 33.5988 27.4288ZM28.4666 31.9231C25.7131 31.92 23.0732 30.825 21.1262 28.8781C19.1792 26.9313 18.084 24.2917 18.081 21.5385C18.0807 20.7382 18.3579 19.9625 18.8652 19.3435C19.3725 18.7245 20.0786 18.3003 20.8635 18.1433L22.5194 21.4606L21.1101 23.5577C21.0048 23.7156 20.9401 23.8971 20.9217 24.0861C20.9034 24.275 20.9319 24.4656 21.0048 24.6409C21.8304 26.603 23.3915 28.1639 25.3538 28.9894C25.5296 29.0656 25.7216 29.0967 25.9125 29.0801C26.1034 29.0635 26.2871 28.9996 26.4472 28.8942L28.5546 27.4894L31.8722 29.1452C31.7139 29.9308 31.2879 30.6372 30.6668 31.1438C30.0457 31.6504 29.2681 31.9258 28.4666 31.9231ZM25.0047 10C22.4148 9.99944 19.8688 10.6694 17.6146 11.9446C15.3604 13.2198 13.4747 15.0568 12.1412 17.2769C10.8077 19.4969 10.0718 22.0244 10.005 24.6133C9.93821 27.2021 10.5429 29.7641 11.7602 32.05L10.123 36.9611C9.98739 37.3677 9.9677 37.804 10.0662 38.2212C10.1646 38.6383 10.3773 39.0198 10.6804 39.3229C10.9835 39.626 11.3651 39.8387 11.7823 39.9371C12.1995 40.0356 12.6359 40.0159 13.0425 39.8803L17.954 38.2433C19.9659 39.3132 22.1951 39.9109 24.4725 39.9908C26.7498 40.0707 29.0155 39.6308 31.0974 38.7044C33.1793 37.7781 35.0229 36.3897 36.488 34.6445C37.9532 32.8994 39.0015 30.8435 39.5534 28.6328C40.1053 26.4221 40.1462 24.1147 39.6731 21.8858C39.2 19.6569 38.2253 17.5651 36.823 15.7691C35.4207 13.9731 33.6276 12.5202 31.5798 11.5206C29.5321 10.5209 27.2835 10.0009 25.0047 10ZM25.0047 37.6923C22.7732 37.6938 20.5809 37.1062 18.6493 35.9889C18.5079 35.9069 18.3506 35.8559 18.188 35.8393C18.0254 35.8226 17.8611 35.8407 17.7059 35.8923L12.3112 37.6923L14.1099 32.2981C14.1618 32.1431 14.1801 31.9788 14.1637 31.8162C14.1473 31.6536 14.0965 31.4963 14.0147 31.3548C12.6155 28.9359 12.0537 26.123 12.4165 23.3523C12.7793 20.5815 14.0464 18.008 16.0213 16.0309C17.9961 14.0537 20.5683 12.7835 23.3388 12.4172C26.1093 12.0509 28.9233 12.6091 31.3442 14.0051C33.765 15.4011 35.6575 17.557 36.728 20.1382C37.7985 22.7194 37.9871 25.5817 37.2647 28.2811C36.5423 30.9805 34.9491 33.366 32.7324 35.0676C30.5157 36.7692 27.7993 37.6918 25.0047 37.6923Z" fill="#141414"/>
</g>
<defs>
<clipPath id="clip0_14_101">
<rect width="50" height="49.9999" fill="white"/>
</clipPath>
</defs>
</svg>
