<svg width="32" height="32" viewBox="0 0 32 32" fill="none" xmlns="http://www.w3.org/2000/svg">
<path d="M32 16C32 24.8366 24.8366 32 16 32C7.16344 32 0 24.8366 0 16C0 7.16344 7.16344 0 16 0C24.8366 0 32 7.16344 32 16Z" fill="#E95420"/>
<path d="M10.08 27V4.82397H23.296L22.752 8.56797H15.328V14.456H21.792V18.2H15.328V27H10.08Z" fill="black"/>
<path d="M21 25.5C21 26.3284 20.3284 27 19.5 27C18.6716 27 18 26.3284 18 25.5C18 24.6716 18.6716 24 19.5 24C20.3284 24 21 24.6716 21 25.5Z" fill="white"/>
</svg>
