<svg width="100" height="100" viewBox="0 0 100 100" fill="none" xmlns="http://www.w3.org/2000/svg">
<g clip-path="url(#clip0_17_53)">
<path d="M12.0079 0.57345C5.23282 1.09202 0 6.74066 0 13.5355V50.2488L0.374096 87.1C0.444568 94.042 5.95708 99.7036 12.8947 99.9593L14 100H50.5H86.547C87.1815 100 87.8151 99.9535 88.4428 99.861L89.7625 99.6665C96.1988 98.7177 100.943 93.1572 100.866 86.6518L100.5 55.7214V23.3831V13.1327C100.5 5.90137 94.5989 0.0599153 87.368 0.133333L51.5 0.497512H24.5H13L12.0079 0.57345Z" fill="#2196F3"/>
<path d="M77.8018 30.4889L76.7846 41.3419L73.7142 73.8766L50.8 79.894L50.781 79.9L27.8794 73.8766L26.281 56.8623H37.5013L38.3352 65.6874L50.7874 68.8791L50.7937 68.8731L63.2648 65.6814L64.9642 50.9769L25.744 51.0789L24.6321 41.0239L65.9056 40.5619L66.7395 29.799L23.5265 29.913L22.8 19.9H78.8L77.8018 30.4889Z" fill="#FAFAFA"/>
</g>
<defs>
<clipPath id="clip0_17_53">
<rect width="100" height="100" fill="white"/>
</clipPath>
</defs>
</svg>
