<svg width="100" height="100" viewBox="0 0 100 100" fill="none" xmlns="http://www.w3.org/2000/svg">
<g clip-path="url(#clip0_17_62)">
<rect width="100" height="100" rx="13" fill="#D88E20"/>
<path d="M61.3083 36.1208L51.3083 45.4333L42.025 26.7L46.8208 15.9292C48.0333 13.7792 50.0167 13.7542 51.2292 15.9292L61.3083 36.1208Z" fill="#FFA000"/>
<path d="M51.3083 45.4292L13.8958 80.225L42.025 26.7L51.3083 45.4292Z" fill="#F57F17"/>
<path d="M72.275 21.8792C74.0667 20.1708 75.9125 20.75 76.3792 23.1708L86.1042 79.7542L53.8458 99.1208C52.7125 99.7542 49.7125 100 49.7125 100C49.7125 100 46.9833 99.6667 45.9375 99.0917L13.9 80.225L72.275 21.8792Z" fill="#FFCA28"/>
<path d="M42.025 26.7L13.9 80.225L26.4333 1.9875C26.9042 -0.437502 28.2792 -0.683336 29.5167 1.4625L42.025 26.7Z" fill="#FFA000"/>
</g>
<defs>
<clipPath id="clip0_17_62">
<rect width="100" height="100" rx="13" fill="white"/>
</clipPath>
</defs>
</svg>
