<svg width="50" height="50" viewBox="0 0 50 50" fill="none" xmlns="http://www.w3.org/2000/svg">
<g clip-path="url(#clip0_14_110)">
<rect width="50" height="50" rx="6" fill="#E95420"/>
<path d="M15.5556 20.7143V37.8571C15.5556 38.4255 15.3214 38.9705 14.9047 39.3724C14.4879 39.7742 13.9227 40 13.3333 40C12.744 40 12.1787 39.7742 11.762 39.3724C11.3452 38.9705 11.1111 38.4255 11.1111 37.8571V20.7143C11.1111 20.146 11.3452 19.6009 11.762 19.1991C12.1787 18.7972 12.744 18.5714 13.3333 18.5714C13.9227 18.5714 14.4879 18.7972 14.9047 19.1991C15.3214 19.6009 15.5556 20.146 15.5556 20.7143ZM40 28.2143V37.8571C40 38.4255 39.7659 38.9705 39.3491 39.3724C38.9324 39.7742 38.3671 40 37.7778 40C37.1884 40 36.6232 39.7742 36.2064 39.3724C35.7897 38.9705 35.5556 38.4255 35.5556 37.8571V28.2143C35.5556 26.7935 34.9702 25.4309 33.9284 24.4262C32.8865 23.4216 31.4734 22.8571 30 22.8571C28.5266 22.8571 27.1135 23.4216 26.0716 24.4262C25.0298 25.4309 24.4444 26.7935 24.4444 28.2143V37.8571C24.4444 38.4255 24.2103 38.9705 23.7936 39.3724C23.3768 39.7742 22.8116 40 22.2222 40C21.6329 40 21.0676 39.7742 20.6509 39.3724C20.2341 38.9705 20 38.4255 20 37.8571V20.7143C20.0028 20.1894 20.2052 19.6838 20.5689 19.2933C20.9327 18.9028 21.4324 18.6546 21.9733 18.5958C22.5142 18.537 23.0586 18.6717 23.5034 18.9743C23.9481 19.2769 24.2622 19.7264 24.3861 20.2375C25.8894 19.2541 27.6421 18.6842 29.456 18.5889C31.2698 18.4936 33.0764 18.8765 34.6815 19.6966C36.2867 20.5166 37.63 21.7428 38.567 23.2435C39.504 24.7442 39.9994 26.4626 40 28.2143ZM16.6667 13.2143C16.6667 13.85 16.4712 14.4715 16.1049 15C15.7386 15.5286 15.218 15.9406 14.6089 16.1839C13.9999 16.4272 13.3296 16.4908 12.683 16.3668C12.0364 16.2428 11.4425 15.9367 10.9763 15.4871C10.5101 15.0376 10.1927 14.4649 10.0641 13.8414C9.93543 13.2179 10.0014 12.5716 10.2537 11.9842C10.506 11.3969 10.9333 10.8949 11.4814 10.5417C12.0296 10.1885 12.6741 10 13.3333 10C14.2174 10 15.0652 10.3386 15.6904 10.9414C16.3155 11.5442 16.6667 12.3618 16.6667 13.2143Z" fill="#141414"/>
</g>
<defs>
<clipPath id="clip0_14_110">
<rect width="50" height="50" fill="white"/>
</clipPath>
</defs>
</svg>
