<svg width="100" height="100" viewBox="0 0 100 100" fill="none" xmlns="http://www.w3.org/2000/svg">
<g clip-path="url(#clip0_17_84)">
<rect width="100" height="100" rx="13" fill="#033458"/>
<path d="M46.2625 43.4914C44.9879 44.2273 43.9601 45.3246 43.3092 46.6446C42.6582 47.9646 42.4133 49.448 42.6054 50.9072C42.7976 52.3664 43.4181 53.7358 44.3885 54.8423C45.3589 55.9489 46.6357 56.7428 48.0574 57.1237C49.479 57.5046 50.9817 57.4553 52.3753 56.9822C53.769 56.5091 54.991 55.6333 55.887 54.4656C56.7829 53.2979 57.3124 51.8908 57.4086 50.4222C57.5048 48.9535 57.1633 47.4893 56.4274 46.2148C55.4405 44.5058 53.8152 43.2588 51.9089 42.7481C50.0027 42.2373 47.9716 42.5047 46.2625 43.4914ZM79.6154 51.565C79.1269 51.0067 78.6114 50.4469 78.0689 49.8855C78.4478 49.4873 78.8145 49.0894 79.1689 48.6918C85.8599 41.174 88.6838 33.6347 86.0672 29.1021C83.5581 24.7562 76.0945 23.4612 66.7508 25.278C65.8305 25.458 64.9152 25.6611 64.005 25.8873C63.8307 25.2866 63.6454 24.6894 63.449 24.0956C60.2792 14.5434 55.1588 8.33004 49.9253 8.33333C44.9069 8.33562 40.0566 14.1545 36.9625 23.1562C36.6581 24.0443 36.3765 24.9397 36.1177 25.8425C35.5091 25.6932 34.898 25.5553 34.2843 25.4288C24.426 23.4047 16.4857 24.7378 13.8742 29.273C11.37 33.622 13.9889 40.7305 20.243 47.9067C20.8632 48.6168 21.501 49.3109 22.1564 49.9891C21.3838 50.7849 20.6522 51.5803 19.9703 52.3712C13.8678 59.4462 11.3987 66.4385 13.8988 70.7687C16.4809 75.2416 24.3094 76.7036 33.838 74.8286C34.6102 74.6755 35.3782 74.5033 36.1418 74.3119C36.4216 75.2885 36.7285 76.2565 37.0625 77.2161C40.143 86.0372 44.966 91.6687 49.9666 91.6669C55.131 91.6639 60.308 85.6132 63.4447 76.4221C63.6924 75.6958 63.9269 74.9415 64.1492 74.1648C65.1357 74.4102 66.1285 74.628 67.1277 74.8182C76.3084 76.5551 83.5965 75.189 86.0921 70.8557C88.6691 66.3795 86.0121 58.8722 79.6154 51.565ZM16.9591 31.0493C18.5669 28.2577 25.056 27.1685 33.5678 28.916C34.1118 29.0279 34.6651 29.1529 35.2277 29.291C34.3967 32.9671 33.8103 36.6943 33.4725 40.448C30.4012 42.6086 27.473 44.9657 24.7063 47.5046C24.0967 46.8742 23.5034 46.2285 22.9263 45.5675C17.5677 39.4188 15.45 33.67 16.9591 31.0493ZM33.1535 54.9164C31.0262 53.3055 29.0492 51.6553 27.2548 49.9955C29.0479 48.3461 31.0262 46.7014 33.1492 45.0949C33.0729 46.7314 33.0351 48.3692 33.0358 50.0082C33.0369 51.6449 33.0762 53.2809 33.1535 54.9164ZM33.151 71.3356C29.5396 72.1386 25.8112 72.2701 22.1522 71.7237C21.1492 71.6456 20.1728 71.3626 19.2834 70.8922C18.394 70.4219 17.6105 69.7741 16.9814 68.989C15.4644 66.3612 17.447 60.7474 22.666 54.6964C23.3222 53.9381 23.9998 53.1995 24.699 52.4808C27.4662 55.033 30.3991 57.3994 33.4787 59.5645C33.8212 63.3661 34.4144 67.141 35.2545 70.8644C34.5574 71.0388 33.8562 71.1958 33.151 71.3356ZM62.739 37.8382C61.3416 36.9577 59.9268 36.1054 58.4948 35.2814C57.0857 34.4703 55.6596 33.6896 54.2165 32.9394C56.6873 31.9005 59.1161 31.0132 61.4609 30.2902C62.0136 32.7831 62.4402 35.3023 62.739 37.8382ZM40.3292 24.3134C42.9801 16.6003 46.9026 11.8945 49.9272 11.8932C53.1483 11.8917 57.3335 16.9693 60.0702 25.2167C60.248 25.7543 60.416 26.295 60.5744 26.8387C56.979 27.9538 53.4614 29.3056 50.0445 30.8853C46.6419 29.2871 43.1353 27.9202 39.5487 26.7939C39.7885 25.9608 40.0486 25.134 40.3292 24.3134ZM38.661 30.2458C41.1067 31.0158 43.5121 31.9086 45.8679 32.9208C42.9489 34.4272 40.1054 36.0681 37.3373 37.8433C37.6717 35.185 38.1167 32.638 38.661 30.2458ZM37.3433 62.1653C38.7238 63.049 40.1243 63.9 41.5451 64.7184C42.9944 65.5528 44.463 66.3522 45.9508 67.1165C43.577 68.1638 41.1509 69.0885 38.6823 69.887C38.1317 67.4617 37.6818 64.8699 37.3433 62.1653ZM60.0754 75.2716C58.9669 78.8013 57.2182 82.0968 54.9167 84.9935C54.3479 85.8232 53.6148 86.5278 52.7631 87.0631C51.9114 87.5985 50.959 87.9535 49.9647 88.1062C46.9305 88.108 43.0578 83.5854 40.4234 76.0419C40.1131 75.15 39.8277 74.25 39.5671 73.3419C43.1709 72.1793 46.6917 70.7737 50.1053 69.1348C53.5503 70.7247 57.0959 72.0867 60.7193 73.2119C60.5215 73.9035 60.3068 74.5901 60.0754 75.2716ZM61.5847 69.754C59.213 69.0207 56.749 68.1185 54.2425 67.0644C55.6554 66.3208 57.0787 65.5355 58.5121 64.7085C59.9831 63.859 61.4166 62.9884 62.8125 62.0964C62.5345 64.6683 62.1247 67.2241 61.5847 69.754ZM63.4443 49.9929C63.4473 52.5233 63.3683 55.0517 63.2073 57.578C61.1544 58.9673 58.9872 60.3239 56.7323 61.6257C54.4867 62.9222 52.2617 64.1136 50.0792 65.1919C47.7824 64.0912 45.53 62.9051 43.3218 61.6336C41.1261 60.3697 38.9807 59.0239 36.8857 57.5961C36.6942 55.0705 36.5977 52.5403 36.5963 50.0056C36.5945 47.4726 36.6894 44.9431 36.8798 42.4154C38.9321 41.0138 41.0836 39.6584 43.3081 38.3741C45.5428 37.0837 47.7956 35.8973 50.036 34.8221C52.3044 35.9245 54.5319 37.106 56.7185 38.3665C58.9128 39.6276 61.0642 40.9591 63.1727 42.361C63.3538 44.901 63.4441 47.445 63.4443 49.9929ZM67.4306 28.7727C75.4362 27.2156 81.4723 28.2631 82.9844 30.882C84.5953 33.6721 82.2866 39.8341 76.5101 46.3252C76.191 46.6832 75.8596 47.0431 75.5165 47.4042C72.7018 44.8599 69.7172 42.5102 66.5833 40.3715C66.2671 36.6588 65.7027 32.9715 64.8939 29.3342C65.7559 29.1222 66.6015 28.935 67.4306 28.7727ZM66.8895 44.959C69.0033 46.5024 71.0357 48.1544 72.9785 49.9083C71.0443 51.6911 69.0183 53.3716 66.9088 54.943C66.9734 53.2932 67.0052 51.6426 67.0041 49.9912C67.0034 48.3134 66.9652 46.636 66.8895 44.959ZM83.0065 69.0788C81.4921 71.7087 75.6404 72.8053 67.789 71.3198C66.8892 71.15 65.966 70.9478 65.0192 70.7133C65.8085 67.0292 66.3478 63.2961 66.6336 59.5393C69.7623 57.3632 72.7375 54.9744 75.5381 52.3898C76.0282 52.8989 76.4944 53.4057 76.9366 53.9101C79.441 56.6332 81.4228 59.7938 82.7828 63.2344C83.2177 64.1416 83.4619 65.1282 83.5004 66.1334C83.5389 67.1387 83.3708 68.1411 83.0065 69.0788Z" fill="#149ECA"/>
</g>
<defs>
<clipPath id="clip0_17_84">
<rect width="100" height="100" fill="white"/>
</clipPath>
</defs>
</svg>
