<svg width="100" height="100" viewBox="0 0 100 100" fill="none" xmlns="http://www.w3.org/2000/svg">
<g clip-path="url(#clip0_17_86)">
<rect width="100" height="100" rx="13" fill="#053B53"/>
<path d="M77.0833 39.625C73.9586 38.5488 71.2004 36.6137 69.125 34.0417C66.8377 31.176 63.9252 28.8714 60.6104 27.3043C57.2956 25.7371 53.6662 24.9489 50 25C45.0682 24.6507 40.1858 26.1719 36.325 29.2604C32.4643 32.349 29.9085 36.7785 29.1667 41.6667C30.6278 39.2219 32.8269 37.3036 35.4475 36.188C38.0681 35.0724 40.975 34.8169 43.75 35.4583C46.8695 36.5659 49.6233 38.5122 51.7083 41.0833C54.0082 43.9261 56.9262 46.2069 60.2403 47.752C63.5544 49.2972 67.1773 50.066 70.8333 50C75.7651 50.3493 80.6476 48.8281 84.5083 45.7396C88.3691 42.651 90.9248 38.2215 91.6667 33.3333C90.2321 35.8074 88.04 37.7546 85.414 38.8875C82.7881 40.0204 79.8675 40.279 77.0833 39.625ZM22.9167 60.375C26.0414 61.4512 28.7997 63.3863 30.875 65.9583C33.1623 68.824 36.0748 71.1286 39.3896 72.6957C42.7044 74.2629 46.3338 75.0511 50 75C54.9318 75.3493 59.8142 73.8281 63.675 70.7396C67.5357 67.651 70.0915 63.2215 70.8333 58.3333C69.3722 60.7781 67.1731 62.6964 64.5525 63.812C61.9319 64.9276 59.025 65.1831 56.25 64.5417C53.1305 63.4341 50.3767 61.4878 48.2917 58.9167C45.9857 56.0809 43.0665 53.8051 39.7538 52.2607C36.4411 50.7162 32.8213 49.9433 29.1667 50C24.2349 49.6507 19.3524 51.1719 15.4917 54.2604C11.6309 57.349 9.07517 61.7785 8.33333 66.6667C9.76794 64.1926 11.96 62.2454 14.586 61.1125C17.2119 59.9796 20.1325 59.721 22.9167 60.375Z" fill="#38BDF8"/>
</g>
<defs>
<clipPath id="clip0_17_86">
<rect width="100" height="100" rx="13" fill="white"/>
</clipPath>
</defs>
</svg>
